# Exported from Wings 3D 1.5.3
mtllib Aus+NZ.mtl
o Cube5_copy6
#14 vertices, 9 faces
v 0.33352890 0.36552430 0.34581911
v 0.33352890 0.36552430 0.37288721
v 0.41114459 0.41995395 0.34581911
v 0.41114459 0.41995395 0.37288721
v 0.35871817 0.34886178 0.34581911
v 0.35871817 0.34886178 0.37288721
v 0.47745360 0.43759072 0.34581911
v 0.47745360 0.43759072 0.37288721
v 0.44411358 0.44789478 0.37288721
v 0.44411358 0.44789478 0.34581911
v 0.46616324 0.45043840 0.34581911
v 0.46616324 0.45043840 0.37288721
v 0.47679291 0.41858625 0.37288721
v 0.47679291 0.41858625 0.34581911
vn -0.74762568 -1.0155696e-2 -0.66404269
vn -0.74762568 -1.0155696e-2 0.66404269
vn -0.54636867 0.70791694 -0.44758786
vn -0.54636867 0.70791694 0.44758786
vn -2.1962055e-2 -0.86108745 -0.50798235
vn -2.1962055e-2 -0.86108745 0.50798235
vn 0.82932854 0.29626878 -0.47374992
vn 0.82932854 0.29626878 0.47374992
vn -0.35244116 0.81324807 0.46304730
vn -0.35244116 0.81324807 -0.46304730
vn 0.31287950 0.81272592 -0.49151093
vn 0.31287950 0.81272592 0.49151093
vn 0.74685819 -0.44370556 0.49530620
vn 0.74685819 -0.44370556 -0.49530620
g Cube5_copy6_default
usemtl default
s 1
f 1//1 5//5 6//6 2//2
f 2//2 4//4 3//3 1//1
f 2//2 6//6 13//13 8//8 12//12 9//9 4//4
f 3//3 10//10 11//11 7//7 14//14 5//5 1//1
f 4//4 9//9 10//10 3//3
f 5//5 14//14 13//13 6//6
f 7//7 11//11 12//12 8//8
f 8//8 13//13 14//14 7//7
f 12//12 11//11 10//10 9//9
o Cube5
#14 vertices, 9 faces
v 0.48647620 0.44163486 0.34581911
v 0.48647620 0.44163486 0.37288721
v 0.49696972 0.47073629 0.34581911
v 0.49696972 0.47073629 0.37288721
v 0.49568400 0.43988836 0.34581911
v 0.49568400 0.43988836 0.37288721
v 0.54826584 0.48110875 0.34581911
v 0.54826584 0.48110875 0.37288721
v 0.52993871 0.49867712 0.37288721
v 0.52993871 0.49867712 0.34581911
v 0.54673352 0.52772854 0.34581911
v 0.54673352 0.52772854 0.37288721
v 0.56261804 0.46936859 0.37288721
v 0.56261804 0.46936859 0.34581911
vn -0.68794088 -0.39264511 -0.61038280
vn -0.68794088 -0.39264511 0.61038280
vn -0.72951205 0.50652976 -0.45960828
vn -0.72951205 0.50652976 0.45960828
vn 0.10052313 -0.88019935 -0.46383639
vn 0.10052313 -0.88019935 0.46383639
vn 0.78581266 0.38836622 -0.48132124
vn 0.78581266 0.38836622 0.48132124
vn -0.68435851 0.57172144 0.45253510
vn -0.68435851 0.57172144 -0.45253510
vn 0.11717367 0.46735211 -0.87627184
vn 0.11717367 0.46735211 0.87627184
vn 0.71614241 -9.7544490e-2 0.69110428
vn 0.71614241 -9.7544490e-2 -0.69110428
g Cube5_default
usemtl default
s 1
f 15//15 19//19 20//20 16//16
f 16//16 18//18 17//17 15//15
f 16//16 20//20 27//27 22//22 26//26 23//23 18//18
f 17//17 24//24 25//25 21//21 28//28 19//19 15//15
f 18//18 23//23 24//24 17//17
f 19//19 28//28 27//27 20//20
f 21//21 25//25 26//26 22//22
f 22//22 27//27 28//28 21//21
f 26//26 25//25 24//24 23//23
o Cube4
#8 vertices, 6 faces
v 0.11959355 0.34563696 0.35575502
v 0.11959355 0.34563696 0.40375502
v 0.10982224 0.39636648 0.35575502
v 0.10982224 0.39636648 0.40375502
v 0.15155745 0.35898800 0.35575502
v 0.15155745 0.35898800 0.40375502
v 0.15697202 0.38737218 0.35575502
v 0.15697202 0.38737218 0.40375502
vn -0.37051340 -0.69060548 -0.62111504
vn -0.37051340 -0.69060548 0.62111504
vn -0.52848989 0.52754477 -0.66512777
vn -0.52848989 0.52754477 0.66512777
vn 0.67521617 -0.54805003 -0.49368441
vn 0.67521617 -0.54805003 0.49368441
vn 0.67530846 0.45893916 -0.57735027
vn 0.67530846 0.45893916 0.57735027
g Cube4_default
usemtl default
s 1
f 29//29 33//33 34//34 30//30
f 30//30 32//32 31//31 29//29
f 30//30 34//34 36//36 32//32
f 31//31 35//35 33//33 29//29
f 32//32 36//36 35//35 31//31
f 33//33 35//35 36//36 34//34
o Cube3
#48 vertices, 21 faces
v -0.20516969 0.46010890 0.32892605
v -0.20516969 0.46010890 0.39842205
v -0.27295347 0.74260279 0.32892605
v -0.27295347 0.74260279 0.39842205
v 0.29062118 0.61505168 0.32892605
v 0.29062118 0.61505168 0.39842205
v 0.19175666 0.90939857 0.32892605
v 0.19175666 0.90939857 0.39842205
v 6.3970055e-2 0.89449318 0.39842205
v 6.3970055e-2 0.89449318 0.32892605
v 0.15028669 0.78599368 0.32892605
v 0.15028669 0.78599368 0.39842205
v 0.26209672 0.67702371 0.39842205
v 0.26209672 0.67702371 0.32892605
v 0.24783449 0.79321114 0.32892605
v 0.24783449 0.79321114 0.39842205
v 0.24070338 0.85130486 0.39842205
v 0.24070338 0.85130486 0.32892605
v 0.23713782 0.88035171 0.32892605
v 0.23713782 0.88035171 0.39842205
v 0.21487393 0.89487514 0.39842205
v 0.21487393 0.89487514 0.32892605
v 5.3035908e-2 0.82792199 0.32892605
v 5.3035908e-2 0.82792199 0.39842205
v -6.9032275e-2 0.83805237 0.39842205
v -6.9032275e-2 0.83805237 0.32892605
v -0.10434276 0.86281614 0.39842205
v -0.10434276 0.86281614 0.32892605
v 1.7866604e-2 0.51025782 0.39842205
v 1.7866604e-2 0.51025782 0.32892605
v 0.16628756 0.42835201 0.32892605
v 0.16628756 0.42835201 0.39842205
v -8.2379688e-2 0.50341214 0.39842205
v -8.2379688e-2 0.50341214 0.32892605
v -2.0212877e-2 0.52029524 0.32892605
v -2.0212877e-2 0.52029524 0.39842205
v -0.14454650 0.47607447 0.39842205
v -0.14454650 0.47607447 0.32892605
v -0.26881346 0.58388331 0.39842205
v -0.26881346 0.58388331 0.32892605
v -0.27709348 0.67889982 0.32892605
v -0.27709348 0.67889982 0.39842205
v -0.20671331 0.48886681 0.39842205
v -0.20671331 0.48886681 0.32892605
v 0.11240077 0.43844302 0.32892605
v 0.11240077 0.43844302 0.39842205
v -0.18394356 0.77500904 0.39842205
v -0.18394356 0.77500904 0.32892605
vn -0.46178011 -0.63356917 -0.62076504
vn -0.46178011 -0.63356917 0.62076504
vn -0.68698594 0.51498948 -0.51267548
vn -0.68698594 0.51498948 0.51267548
vn 0.86610956 -0.11476215 -0.48650167
vn 0.86610956 -0.11476215 0.48650167
vn 4.1153869e-5 0.53722168 -0.84344108
vn 4.1153869e-5 0.53722168 0.84344108
vn 0.42903642 0.54586445 0.71969421
vn 0.42903642 0.54586445 -0.71969421
vn -0.32787197 0.73464219 -0.59397039
vn -0.32787197 0.73464219 0.59397039
vn 0.67030701 0.22514108 0.70710678
vn 0.67030701 0.22514108 -0.70710678
vn 0.67030701 0.22514108 -0.70710678
vn 0.67030701 0.22514108 0.70710678
vn 0.67030701 0.22514108 0.70710678
vn 0.67030701 0.22514108 -0.70710678
vn 0.67030701 0.22514108 -0.70710678
vn 0.67030701 0.22514108 0.70710678
vn 0.67030701 0.22514108 0.70710678
vn 0.67030701 0.22514108 -0.70710678
vn 0.74080589 0.40515920 -0.53577295
vn 0.74080589 0.40515920 0.53577295
vn 9.1105152e-2 0.86331815 0.49636843
vn 9.1105152e-2 0.86331815 -0.49636843
vn -9.2480266e-2 0.82683597 0.55478796
vn -9.2480266e-2 0.82683597 -0.55478796
vn -0.39048262 -0.80079172 0.45415409
vn -0.39048262 -0.80079172 -0.45415409
vn 0.33328613 -0.79031421 -0.51412431
vn 0.33328613 -0.79031421 0.51412431
vn 0.29789297 -0.84283336 0.44820944
vn 0.29789297 -0.84283336 -0.44820944
vn 3.3092201e-3 -0.88808496 -0.45966743
vn 3.3092201e-3 -0.88808496 0.45966743
vn 0.29464068 -0.84391990 0.44831471
vn 0.29464068 -0.84391990 -0.44831471
vn -0.84004263 -0.29046284 0.45821361
vn -0.84004263 -0.29046284 -0.45821361
vn -0.89385604 -9.8441543e-3 -0.44824600
vn -0.89385604 -9.8441543e-3 0.44824600
vn -0.84399208 -0.27618529 0.45978154
vn -0.84399208 -0.27618529 -0.45978154
vn -0.36056767 -0.81310382 -0.45700453
vn -0.36056767 -0.81310382 0.45700453
vn -0.49590977 0.73782943 0.45790964
vn -0.49590977 0.73782943 -0.45790964
g Cube3_default
usemtl default
s 1
f 37//37 74//74 73//73 38//38
f 38//38 73//73 69//69 72//72 65//65 82//82 68//68 42//42 49//49 52//52 53//53 56//56 57//57 44//44 48//48 60//60 45//45 61//61 63//63 83//83 40//40 78//78 75//75 79//79
f 38//38 79//79 80//80 37//37
f 39//39 77//77 78//78 40//40
f 40//40 83//83 84//84 39//39
f 41//41 50//50 51//51 54//54 55//55 58//58 43//43 44//44 57//57 56//56 53//53 52//52 49//49 42//42
f 42//42 68//68 67//67 41//41
f 43//43 47//47 48//48 44//44
f 46//46 62//62 61//61 45//45
f 47//47 59//59 60//60 48//48
f 60//60 59//59 46//46 45//45
f 62//62 64//64 63//63 61//61
f 64//64 84//84 83//83 63//63
f 65//65 66//66 81//81 82//82
f 65//65 72//72 71//71 66//66
f 68//68 82//82 81//81 67//67
f 69//69 70//70 71//71 72//72
f 69//69 73//73 74//74 70//70
f 76//76 80//80 79//79 75//75
f 78//78 77//77 76//76 75//75
f 80//80 76//76 77//77 39//39 84//84 64//64 62//62 46//46 59//59 47//47 43//43 58//58 55//55 54//54 51//51 50//50 41//41 67//67 81//81 66//66 71//71 70//70 74//74 37//37
